<?xml version="1.0" encoding="utf-8"?>
<!-- Generator: Adobe Illustrator 16.0.4, SVG Export Plug-In . SVG Version: 6.00 Build 0)  -->
<!DOCTYPE svg PUBLIC "-//W3C//DTD SVG 1.1//EN" "http://www.w3.org/Graphics/SVG/1.1/DTD/svg11.dtd">
<svg version="1.1" id="Warstwa_1" xmlns="http://www.w3.org/2000/svg" xmlns:xlink="http://www.w3.org/1999/xlink" x="0px" y="0px"
	 width="222.52px" height="164.708px" viewBox="0 0 222.52 164.708" enable-background="new 0 0 222.52 164.708"
	 xml:space="preserve">
<path fill="#038939" d="M179.464,17.233c0,0-40.814,2.383-49.638,9.41c-8.234,6.56-8.747,21.751-8.747,21.751
	s13.408,10.083,25.726,7.708C159.122,53.73,179.464,17.233,179.464,17.233z"/>
<path fill="#038939" d="M38.792,28.112c0,0,45.278-7.468,57.863-4.083c11.747,3.161,18.827,14.708,18.827,14.708
	S105.275,49.535,90.9,50.519C76.525,51.502,38.792,28.112,38.792,28.112z"/>
<path fill="#ED1C24" d="M143.225,30.533c-8.43,14.917-27.359,20.176-42.277,11.745C86.03,33.846,80.771,14.918,89.203,0
	L143.225,30.533z"/>
<rect x="13.802" y="51.778" fill="#873215" width="194.915" height="101.465"/>
<path fill="#873215" d="M220.563,70.617c0,6.627-5.305,18.696-11.847,18.696H13.803c-6.543,0-11.847-12.069-11.847-18.696v-0.143
	c0-6.627,5.304-18.696,11.847-18.696h194.914c6.542,0,11.847,12.069,11.847,18.696V70.617z"/>
<path fill="#873215" d="M220.563,123.083c0,6.627-5.305,18.695-11.847,18.695H13.803c-6.543,0-11.847-12.068-11.847-18.695v-0.144
	c0-6.628,5.304-18.696,11.847-18.696h194.914c6.542,0,11.847,12.068,11.847,18.696V123.083z"/>
<path fill="#FCDD5B" d="M215.055,104.242c4.123,0,7.465-3.343,7.465-7.464c-0.001-4.123-3.342-7.464-7.465-7.464h-0.001
	c-25.95,0-25.95,8-51.9,8s-25.95-8-51.9-8c-25.947,0-25.947,8-51.894,8c-25.947,0-25.947-8-51.895-8C3.342,89.313,0,92.655,0,96.778
	c0,4.123,3.342,7.465,7.464,7.465c25.948,0,25.948,8,51.895,8c25.947,0,25.947-8,51.894-8c25.95,0,25.95,8,51.9,8
	S189.104,104.242,215.055,104.242L215.055,104.242z"/>
<path fill="#FCDD5B" d="M215.055,156.707c4.123,0,7.465-3.343,7.465-7.464c-0.001-4.123-3.342-7.465-7.465-7.465h-0.001
	c-25.95,0-25.95,8-51.9,8s-25.95-8-51.9-8c-25.947,0-25.947,8-51.894,8c-25.947,0-25.947-8-51.895-8
	c-4.123,0-7.464,3.342-7.464,7.465s3.342,7.465,7.464,7.465c25.948,0,25.948,8,51.895,8c25.947,0,25.947-8,51.894-8
	c25.95,0,25.95,8,51.9,8S189.104,156.707,215.055,156.707L215.055,156.707z"/>
<circle fill="#BC2420" cx="28.893" cy="68.741" r="4.241"/>
<circle fill="#BC2420" cx="72.897" cy="81.688" r="4.241"/>
<circle fill="#BC2420" cx="130.358" cy="68.741" r="4.241"/>
<circle fill="#BC2420" cx="138.984" cy="83.919" r="4.241"/>
<circle fill="#BC2420" cx="196.429" cy="68.741" r="4.241"/>
<circle fill="#BC2420" cx="97.409" cy="123.01" r="4.241"/>
<circle fill="#BC2420" cx="49.554" cy="120.87" r="4.241"/>
<circle fill="#BC2420" cx="64.415" cy="137.538" r="4.241"/>
<circle fill="#BC2420" cx="143.226" cy="137.538" r="4.241"/>
<circle fill="#BC2420" cx="179.464" cy="123.01" r="4.241"/>
<circle fill="#038939" cx="100.358" cy="68.741" r="4.241"/>
<circle fill="#038939" cx="168.176" cy="83.92" r="4.241"/>
<circle fill="#038939" cx="18.043" cy="116.629" r="4.241"/>
<circle fill="#038939" cx="130.358" cy="118.77" r="4.241"/>
<path fill="#BC2420" d="M138.895,28.157c-7.086,12.542-23.001,16.964-35.544,9.874c-12.542-7.088-16.964-23.002-9.875-35.545
	L138.895,28.157z"/>
<path fill="#FCDD5B" d="M215.055,51.777c4.123,0,7.465-3.342,7.465-7.464c-0.001-4.122-3.342-7.464-7.465-7.464h-0.001
	c-25.95,0-25.95,8-51.9,8s-25.95-8-51.9-8c-25.947,0-25.947,8-51.894,8c-25.947,0-25.947-8-51.895-8C3.342,36.849,0,40.191,0,44.313
	s3.342,7.464,7.464,7.464c25.948,0,25.948,8,51.895,8c25.947,0,25.947-8,51.894-8c25.95,0,25.95,8,51.9,8
	S189.104,51.777,215.055,51.777L215.055,51.777z"/>
</svg>
